<svg id="Capa_2" data-name="Capa 2" xmlns="http://www.w3.org/2000/svg" xmlns:xlink="http://www.w3.org/1999/xlink" viewBox="0 0 588.64 766.4"><defs><style>.cls-1{fill:url(#Degradado_sin_nombre_7);}.cls-2{fill:#fff;}.cls-3{fill:#5272ff;}.cls-4{font-size:88.17px;font-family:Poppins-Regular, Poppins;}.cls-4,.cls-5{fill:#15006a;}.cls-5{font-size:31.34px;font-family:JosefinSans-Light, Josefin Sans;font-weight:300;}.cls-6{letter-spacing:-0.03em;}.cls-7{letter-spacing:-0.03em;}</style><linearGradient id="Degradado_sin_nombre_7" x1="576.12" y1="769.56" x2="576.12" y2="178.81" gradientUnits="userSpaceOnUse"><stop offset="0" stop-color="#15006a"/><stop offset="0.43" stop-color="#3258af"/><stop offset="0.82" stop-color="#4aa2e8"/><stop offset="1" stop-color="#54bfff"/></linearGradient></defs><title>LOGO</title><path class="cls-1" d="M578,178.81a717.42,717.42,0,0,0,163,61.12,715.64,715.64,0,0,0,122.22,18.51c5.65,39.46,21.8,185.88-70.37,329.63C719.93,701.81,618.93,751.92,578,769.56c-41.68-17.19-139.85-64.36-213-172.23-99.37-146.61-81.48-300.68-75.92-338.89a761.39,761.39,0,0,0,163-29.63A760.71,760.71,0,0,0,578,178.81Z" transform="translate(-284.27 -178.81)"/><path class="cls-2" d="M617.33,524.83a73,73,0,0,1-84.48,0,67.46,67.46,0,0,1-37,13.92c-35.31,1.9-56.84-26.63-58.08-28.32-17.67-24.24-17.08-57.75-1-81.12,12.45-18,30.49-24.7,37.44-26.88A50.18,50.18,0,0,1,532.85,376c17.93-18.82,44.45-26.6,69.12-20.16,34.26,9,46.84,40.61,48,43.68,5-.14,32.75-.45,54.24,21.12,1.88,1.89,29.25,30.34,18.72,67.68-7.59,27-31.29,45.69-57.12,49C641.06,540.45,622.38,528.35,617.33,524.83Z" transform="translate(-284.27 -178.81)"/><path class="cls-3" d="M433.28,467.36c1.64-6.44,7.25-24.89,25-37.92a64.67,64.67,0,0,1,22.56-10.56c6.43-15.46,19.24-26.18,33.6-27.36a35.59,35.59,0,0,1,18.72,3.84c19.8-22.77,50.45-30.18,74.4-19.2,24.48,11.22,31.62,36.91,32.64,40.8,28.12-5.37,56.3,9.35,67.68,35,10.88,24.56,4.08,53.88-16.8,71.52,24.47-15.73,35.1-46.1,25.92-73-9.69-28.37-39.19-46.12-69.6-41.28-1-3.14-11.14-33.45-42.24-43.68-24.58-8.08-52.33-.36-70.56,19.68a43.1,43.1,0,0,0-20.95-1.39c-21.35,4-31.45,23.6-32.81,26.35a62.79,62.79,0,0,0-29.28,16.32C435.55,442.47,433.63,462,433.28,467.36Z" transform="translate(-284.27 -178.81)"/><path class="cls-3" d="M486.56,434.72c2.09,21.65,15.37,39.86,34.08,46.56,17.77,6.36,33.73-.07,37.92-1.92,1.09,2.2,7,13.54,20.18,17.4a31.92,31.92,0,0,0,16.3.36,39.94,39.94,0,0,1-43.2-10.56c-3.27,1.42-20.66,8.58-38.4.48C495.17,478.7,484,457.58,486.56,434.72Z" transform="translate(-284.27 -178.81)"/><path class="cls-3" d="M1173.68,419.84" transform="translate(-284.27 -178.81)"/><text class="cls-4" transform="translate(0 705.26)">STRONGHOLD</text><rect class="cls-2" x="159.33" y="440.83" width="267.84" height="5.4"/><text x="-284.27" y="-178.81"/><text class="cls-5" transform="translate(1.05 759.07)">LA SEGURI<tspan class="cls-6" x="162.7" y="0">D</tspan><tspan x="184.88" y="0">AD NO ES UN </tspan><tspan class="cls-7" x="407.46" y="0">A</tspan><tspan x="428.71" y="0">CCIDENTE</tspan></text></svg>