<?xml version="1.0" encoding="UTF-8" standalone="no"?>
<!DOCTYPE svg PUBLIC "-//W3C//DTD SVG 1.1//EN" "http://www.w3.org/Graphics/SVG/1.1/DTD/svg11.dtd">
<svg xmlns="http://www.w3.org/2000/svg" version="1.1" viewBox="0.00 0.00 512.00 512.00">
<g stroke-width="2.00" fill="none" stroke-linecap="butt">
<path stroke="#263df6" vector-effect="non-scaling-stroke" d="
  M 336.79 0.75
  Q 336.02 1.69 336.02 2.31
  Q 335.97 53.56 336.02 104.80
  Q 336.04 115.64 337.16 119.98
  C 341.04 134.88 354.36 144.04 369.50 144.04
  Q 423.44 144.02 477.38 143.99
  C 478.03 143.99 478.86 143.61 479.50 143.46"
/>
<path stroke="#9ba7fd" vector-effect="non-scaling-stroke" d="
  M 162.88 288.90
  Q 162.83 287.64 164.09 287.69
  C 172.51 288.02 181.99 288.13 189.34 285.14
  C 214.33 274.96 213.85 236.96 189.29 226.88
  C 179.90 223.03 165.01 223.86 154.73 224.14
  Q 144.34 224.43 144.28 234.75
  Q 144.16 256.60 144.28 306.49
  C 144.29 312.84 145.01 318.34 151.80 319.60
  C 162.05 321.51 162.61 312.30 162.92 304.55
  Q 163.24 296.49 162.88 288.90"
/>
<path stroke="#9ba7fd" vector-effect="non-scaling-stroke" d="
  M 224.21 295.55
  C 224.25 299.37 223.85 304.68 224.16 309.33
  C 224.81 319.28 231.23 319.46 239.19 319.72
  C 251.23 320.10 265.73 320.38 276.25 316.53
  C 291.90 310.81 300.97 297.83 303.44 281.46
  C 306.71 259.70 298.02 235.37 276.16 227.52
  Q 269.42 225.10 256.52 224.35
  Q 242.60 223.54 233.94 224.41
  Q 224.45 225.36 224.28 234.76
  Q 223.79 261.08 224.21 295.55"
/>
<path stroke="#9ba7fd" vector-effect="non-scaling-stroke" d="
  M 338.64 289.08
  C 344.34 288.88 355.35 290.25 360.16 287.91
  C 367.42 284.39 366.13 271.27 357.69 270.82
  Q 348.72 270.33 338.61 270.58
  A 0.59 0.59 0.0 0 1 338.00 269.99
  L 338.00 243.03
  Q 338.00 242.53 338.50 242.53
  Q 348.39 242.45 358.28 242.47
  C 371.35 242.50 370.41 224.34 359.50 224.30
  Q 345.25 224.25 331.00 224.32
  Q 320.29 224.37 320.27 234.51
  Q 320.21 272.60 320.29 310.69
  C 320.31 322.43 337.59 323.70 337.83 309.47
  Q 337.99 299.63 338.03 289.71
  Q 338.03 289.10 338.64 289.08"
/>
<path stroke="#9ba7fd" vector-effect="non-scaling-stroke" d="
  M 162.92 242.30
  L 163.06 269.74
  A 0.54 0.54 0.0 0 0 163.60 270.27
  L 175.24 270.21
  A 13.68 13.30 89.7 0 0 188.47 256.46
  L 188.47 255.30
  A 13.68 13.30 89.7 0 0 175.10 241.69
  L 163.46 241.75
  A 0.54 0.54 0.0 0 0 162.92 242.30"
/>
<path stroke="#9ba7fd" vector-effect="non-scaling-stroke" d="
  M 244.14 243.37
  L 244.34 300.75
  A 0.64 0.64 0.0 0 0 244.98 301.39
  L 257.76 301.34
  A 25.67 25.30 89.8 0 0 282.97 275.58
  L 282.95 268.26
  A 25.67 25.30 89.8 0 0 257.56 242.68
  L 244.78 242.73
  A 0.64 0.64 0.0 0 0 244.14 243.37"
/>
</g>
<path fill="#3951fd" d="
  M 63.31 0.00
  L 336.06 0.00
  L 336.79 0.75
  Q 336.02 1.69 336.02 2.31
  Q 335.97 53.56 336.02 104.80
  Q 336.04 115.64 337.16 119.98
  C 341.04 134.88 354.36 144.04 369.50 144.04
  Q 423.44 144.02 477.38 143.99
  C 478.03 143.99 478.86 143.61 479.50 143.46
  Q 480.00 144.20 480.00 144.50
  Q 480.01 307.83 479.99 471.15
  Q 479.99 484.44 478.42 489.57
  C 474.40 502.69 462.32 511.29 448.44 512.00
  L 63.44 512.00
  C 60.73 511.54 57.76 511.49 55.29 510.67
  Q 38.08 504.98 33.49 488.82
  Q 31.99 483.56 32.00 471.54
  Q 32.01 252.14 32.00 32.75
  C 32.00 14.39 45.29 1.58 63.31 0.00
  Z
  M 162.88 288.90
  Q 162.83 287.64 164.09 287.69
  C 172.51 288.02 181.99 288.13 189.34 285.14
  C 214.33 274.96 213.85 236.96 189.29 226.88
  C 179.90 223.03 165.01 223.86 154.73 224.14
  Q 144.34 224.43 144.28 234.75
  Q 144.16 256.60 144.28 306.49
  C 144.29 312.84 145.01 318.34 151.80 319.60
  C 162.05 321.51 162.61 312.30 162.92 304.55
  Q 163.24 296.49 162.88 288.90
  Z
  M 224.21 295.55
  C 224.25 299.37 223.85 304.68 224.16 309.33
  C 224.81 319.28 231.23 319.46 239.19 319.72
  C 251.23 320.10 265.73 320.38 276.25 316.53
  C 291.90 310.81 300.97 297.83 303.44 281.46
  C 306.71 259.70 298.02 235.37 276.16 227.52
  Q 269.42 225.10 256.52 224.35
  Q 242.60 223.54 233.94 224.41
  Q 224.45 225.36 224.28 234.76
  Q 223.79 261.08 224.21 295.55
  Z
  M 338.64 289.08
  C 344.34 288.88 355.35 290.25 360.16 287.91
  C 367.42 284.39 366.13 271.27 357.69 270.82
  Q 348.72 270.33 338.61 270.58
  A 0.59 0.59 0.0 0 1 338.00 269.99
  L 338.00 243.03
  Q 338.00 242.53 338.50 242.53
  Q 348.39 242.45 358.28 242.47
  C 371.35 242.50 370.41 224.34 359.50 224.30
  Q 345.25 224.25 331.00 224.32
  Q 320.29 224.37 320.27 234.51
  Q 320.21 272.60 320.29 310.69
  C 320.31 322.43 337.59 323.70 337.83 309.47
  Q 337.99 299.63 338.03 289.71
  Q 338.03 289.10 338.64 289.08
  Z"
/>
<path fill="#1228ee" d="
  M 336.79 0.75
  L 479.50 143.46
  C 478.86 143.61 478.03 143.99 477.38 143.99
  Q 423.44 144.02 369.50 144.04
  C 354.36 144.04 341.04 134.88 337.16 119.98
  Q 336.04 115.64 336.02 104.80
  Q 335.97 53.56 336.02 2.31
  Q 336.02 1.69 336.79 0.75
  Z"
/>
<path fill="#fcfcfc" d="
  M 162.88 288.90
  Q 163.24 296.49 162.92 304.55
  C 162.61 312.30 162.05 321.51 151.80 319.60
  C 145.01 318.34 144.29 312.84 144.28 306.49
  Q 144.16 256.60 144.28 234.75
  Q 144.34 224.43 154.73 224.14
  C 165.01 223.86 179.90 223.03 189.29 226.88
  C 213.85 236.96 214.33 274.96 189.34 285.14
  C 181.99 288.13 172.51 288.02 164.09 287.69
  Q 162.83 287.64 162.88 288.90
  Z
  M 162.92 242.30
  L 163.06 269.74
  A 0.54 0.54 0.0 0 0 163.60 270.27
  L 175.24 270.21
  A 13.68 13.30 89.7 0 0 188.47 256.46
  L 188.47 255.30
  A 13.68 13.30 89.7 0 0 175.10 241.69
  L 163.46 241.75
  A 0.54 0.54 0.0 0 0 162.92 242.30
  Z"
/>
<path fill="#fcfcfc" d="
  M 224.21 295.55
  Q 223.79 261.08 224.28 234.76
  Q 224.45 225.36 233.94 224.41
  Q 242.60 223.54 256.52 224.35
  Q 269.42 225.10 276.16 227.52
  C 298.02 235.37 306.71 259.70 303.44 281.46
  C 300.97 297.83 291.90 310.81 276.25 316.53
  C 265.73 320.38 251.23 320.10 239.19 319.72
  C 231.23 319.46 224.81 319.28 224.16 309.33
  C 223.85 304.68 224.25 299.37 224.21 295.55
  Z
  M 244.14 243.37
  L 244.34 300.75
  A 0.64 0.64 0.0 0 0 244.98 301.39
  L 257.76 301.34
  A 25.67 25.30 89.8 0 0 282.97 275.58
  L 282.95 268.26
  A 25.67 25.30 89.8 0 0 257.56 242.68
  L 244.78 242.73
  A 0.64 0.64 0.0 0 0 244.14 243.37
  Z"
/>
<path fill="#fcfcfc" d="
  M 338.03 289.71
  Q 337.99 299.63 337.83 309.47
  C 337.59 323.70 320.31 322.43 320.29 310.69
  Q 320.21 272.60 320.27 234.51
  Q 320.29 224.37 331.00 224.32
  Q 345.25 224.25 359.50 224.30
  C 370.41 224.34 371.35 242.50 358.28 242.47
  Q 348.39 242.45 338.50 242.53
  Q 338.00 242.53 338.00 243.03
  L 338.00 269.99
  A 0.59 0.59 0.0 0 0 338.61 270.58
  Q 348.72 270.33 357.69 270.82
  C 366.13 271.27 367.42 284.39 360.16 287.91
  C 355.35 290.25 344.34 288.88 338.64 289.08
  Q 338.03 289.10 338.03 289.71
  Z"
/>
<path fill="#3951fd" d="
  M 162.92 242.30
  A 0.54 0.54 0.0 0 1 163.46 241.75
  L 175.10 241.69
  A 13.68 13.30 89.7 0 1 188.47 255.30
  L 188.47 256.46
  A 13.68 13.30 89.7 0 1 175.24 270.21
  L 163.60 270.27
  A 0.54 0.54 0.0 0 1 163.06 269.74
  L 162.92 242.30
  Z"
/>
<path fill="#3951fd" d="
  M 244.14 243.37
  A 0.64 0.64 0.0 0 1 244.78 242.73
  L 257.56 242.68
  A 25.67 25.30 89.8 0 1 282.95 268.26
  L 282.97 275.58
  A 25.67 25.30 89.8 0 1 257.76 301.34
  L 244.98 301.39
  A 0.64 0.64 0.0 0 1 244.34 300.75
  L 244.14 243.37
  Z"
/>
</svg>
