<?xml version="1.0" encoding="UTF-8" standalone="no"?>
<!DOCTYPE svg PUBLIC "-//W3C//DTD SVG 1.1//EN" "http://www.w3.org/Graphics/SVG/1.1/DTD/svg11.dtd">
<svg xmlns="http://www.w3.org/2000/svg" version="1.1" viewBox="0 0 300 300">
<circle fill="#000000" cx="150.80" cy="56.95" r="26.39"/>
<path fill="#000000" d="
  M 71.57 116.65
  Q 70.00 114.93 66.81 114.41
  Q 55.71 112.56 49.75 111.26
  C 43.00 109.77 35.43 102.89 42.82 96.28
  C 50.05 89.81 69.26 91.30 77.99 93.28
  Q 84.07 94.67 86.12 100.55
  A 1.29 1.28 -9.7 0 1 84.91 102.25
  L 72.55 102.25
  Q 72.04 102.25 71.74 101.83
  L 70.45 100.02
  Q 70.13 99.57 69.61 99.40
  Q 63.27 97.36 57.06 99.49
  A 1.45 1.45 0.0 0 0 56.33 101.67
  C 58.06 104.24 72.68 105.82 76.25 106.47
  Q 78.95 106.96 82.81 108.94
  C 88.54 111.89 89.39 119.13 83.87 122.84
  C 75.58 128.40 59.52 127.83 50.22 126.05
  C 44.02 124.86 40.27 122.81 39.25 116.44
  Q 39.06 115.28 40.24 115.27
  L 53.58 115.20
  Q 54.05 115.20 54.14 115.66
  C 55.29 121.50 68.91 121.83 71.65 117.76
  Q 72.05 117.18 71.57 116.65
  Z"
/>
<path fill="#000000" d="
  M 110.78 119.75
  L 136.29 119.75
  A 0.74 0.73 5.7 0 1 137.02 120.63
  Q 136.55 123.09 137.09 125.56
  A 1.40 1.39 -6.1 0 1 135.72 127.25
  L 95.25 127.25
  A 0.50 0.50 0.0 0 1 94.75 126.75
  L 94.75 93.25
  Q 94.75 92.75 95.25 92.75
  L 135.35 92.75
  Q 136.01 92.75 136.01 93.41
  L 135.97 99.52
  Q 135.97 100.25 135.24 100.25
  L 110.90 100.25
  Q 110.30 100.25 110.24 100.85
  L 109.94 104.13
  A 1.27 1.27 0.0 0 0 111.20 105.52
  L 132.99 105.49
  A 1.01 1.01 0.0 0 1 134.00 106.50
  L 134.00 112.47
  A 0.53 0.53 0.0 0 1 133.47 113.00
  L 110.78 113.00
  Q 110.06 113.00 110.06 113.72
  L 110.06 119.03
  Q 110.06 119.75 110.78 119.75
  Z"
/>
<path fill="#000000" d="
  M 184.48 115.07
  A 0.37 0.36 23.9 0 0 185.12 114.83
  L 184.96 93.43
  Q 184.95 92.75 185.63 92.75
  L 199.25 92.75
  Q 200.00 92.75 200.00 93.50
  L 200.00 126.50
  A 0.74 0.73 -90.0 0 1 199.27 127.24
  Q 189.84 127.26 180.50 127.25
  C 178.92 127.25 162.21 107.20 159.89 104.51
  A 0.38 0.38 0.0 0 0 159.22 104.76
  L 159.46 126.23
  A 1.01 1.00 89.7 0 1 158.46 127.25
  L 145.03 127.25
  A 0.53 0.53 0.0 0 1 144.50 126.72
  L 144.50 93.28
  Q 144.50 92.75 145.03 92.75
  L 163.60 92.75
  Q 164.14 92.75 164.51 93.15
  L 184.48 115.07
  Z"
/>
<path fill="#000000" d="
  M 244.83 121.00
  L 222.28 121.00
  Q 221.79 121.00 221.47 121.38
  C 219.32 123.91 219.47 127.33 215.51 127.26
  Q 209.30 127.16 203.23 127.36
  A 0.49 0.49 0.0 0 1 202.80 126.59
  L 225.90 93.23
  A 1.12 1.11 17.0 0 1 226.82 92.75
  L 242.63 92.75
  Q 243.34 92.75 243.73 93.34
  L 265.80 126.67
  Q 266.19 127.25 265.49 127.25
  L 249.53 127.25
  Q 249.00 127.25 248.73 126.79
  L 245.65 121.48
  Q 245.38 121.00 244.83 121.00
  Z
  M 226.46 112.90
  A 0.35 0.35 0.0 0 0 226.75 113.44
  L 240.84 113.56
  A 0.35 0.35 0.0 0 0 241.14 113.03
  L 234.20 101.54
  A 0.35 0.35 0.0 0 0 233.60 101.53
  L 226.46 112.90
  Z"
/>
<path fill="#000000" d="
  M 46.44 155.81
  Q 37.08 155.94 27.66 155.64
  A 0.42 0.42 0.0 0 1 27.25 155.22
  L 27.25 137.50
  Q 27.25 137.00 27.75 137.00
  L 139.48 137.00
  A 0.33 0.33 0.0 0 1 139.77 137.49
  L 73.64 251.90
  A 0.59 0.58 36.7 0 1 72.73 252.03
  L 59.67 239.81
  A 0.82 0.81 -54.1 0 1 59.52 238.82
  Q 80.16 202.80 100.68 166.81
  C 103.97 161.04 102.88 155.52 95.38 155.50
  Q 70.90 155.47 46.44 155.81
  Z"
/>
<path fill="#000000" d="
  M 161.50 137.05
  L 271.90 137.04
  A 0.86 0.85 90.0 0 1 272.75 137.90
  L 272.75 154.99
  Q 272.75 155.49 272.24 155.49
  Q 238.49 155.52 204.77 155.50
  C 198.24 155.49 195.49 160.11 198.76 165.76
  Q 219.82 202.25 241.01 238.67
  Q 241.25 239.09 240.90 239.41
  L 227.39 251.62
  A 0.70 0.70 0.0 0 1 226.31 251.45
  L 161.24 137.50
  A 0.30 0.30 0.0 0 1 161.50 137.05
  Z"
/>
<path fill="#000000" d="
  M 155.05 200.95
  C 152.38 196.41 146.72 198.86 144.53 202.55
  Q 124.77 235.89 104.98 269.39
  A 0.65 0.65 0.0 0 1 104.13 269.64
  L 88.77 262.16
  A 0.48 0.48 0.0 0 1 88.57 261.48
  L 149.62 156.67
  A 0.36 0.36 0.0 0 1 150.24 156.67
  L 212.27 260.67
  Q 212.59 261.21 212.04 261.49
  L 196.07 269.80
  A 0.46 0.46 0.0 0 1 195.47 269.63
  Q 175.27 235.31 155.05 200.95
  Z"
/>
</svg>
